<svg width="512" height="512" viewBox="0 0 512 512" xmlns="http://www.w3.org/2000/svg">
<rect width="512" height="512" fill="#16A34A"/>
<circle cx="256" cy="218" r="68" fill="#FCD9B8"/>
<path d="M 178 195 Q 178 110 256 110 Q 334 110 334 195 L 334 200 Q 334 208 326 208 L 186 208 Q 178 208 178 200 Z" fill="#FFFFFF"/>
<rect x="172" y="196" width="168" height="26" rx="12" fill="#F0FDF4" stroke="#16A34A" stroke-width="3"/>
<rect x="234" y="100" width="44" height="24" rx="6" fill="#FFFFFF"/>
<text x="256" y="170" text-anchor="middle" font-family="Arial, sans-serif" font-size="22" font-weight="700" fill="#16A34A">ChantPro</text>
<circle cx="232" cy="222" r="8" fill="#1F2937"/>
<circle cx="280" cy="222" r="8" fill="#1F2937"/>
<path d="M 222 250 Q 256 272 290 250" fill="none" stroke="#1F2937" stroke-width="7" stroke-linecap="round"/>
<circle cx="218" cy="244" r="9" fill="#FCA5A5" opacity="0.6"/>
<circle cx="294" cy="244" r="9" fill="#FCA5A5" opacity="0.6"/>
<g>
<ellipse cx="222" cy="392" rx="58" ry="46" fill="#FFFFFF"/>
<path d="M 172 374 Q 167 342 187 332 Q 200 327 205 342 L 200 374 Z" fill="#FFFFFF"/>
<path d="M 200 366 Q 197 332 217 325 Q 230 320 234 336 L 226 368 Z" fill="#FFFFFF"/>
<path d="M 228 366 Q 228 330 248 325 Q 261 322 264 338 L 254 370 Z" fill="#FFFFFF"/>
<path d="M 256 372 Q 260 340 278 336 Q 291 334 292 349 L 282 376 Z" fill="#FFFFFF"/>
<rect x="174" y="390" width="96" height="42" rx="19" fill="#FFFFFF"/>
<path d="M 169 379 Q 162 379 162 390 Q 162 401 172 403 L 176 379 Z" fill="#FFFFFF"/>
<line x1="198" y1="368" x2="194" y2="400" stroke="#D1FAE5" stroke-width="3"/>
<line x1="228" y1="362" x2="225" y2="400" stroke="#D1FAE5" stroke-width="3"/>
<line x1="257" y1="366" x2="255" y2="400" stroke="#D1FAE5" stroke-width="3"/>
</g>
<g transform="translate(512,0) scale(-1,1)">
<ellipse cx="222" cy="392" rx="58" ry="46" fill="#FFFFFF"/>
<path d="M 172 374 Q 167 342 187 332 Q 200 327 205 342 L 200 374 Z" fill="#FFFFFF"/>
<path d="M 200 366 Q 197 332 217 325 Q 230 320 234 336 L 226 368 Z" fill="#FFFFFF"/>
<path d="M 228 366 Q 228 330 248 325 Q 261 322 264 338 L 254 370 Z" fill="#FFFFFF"/>
<path d="M 256 372 Q 260 340 278 336 Q 291 334 292 349 L 282 376 Z" fill="#FFFFFF"/>
<rect x="174" y="390" width="96" height="42" rx="19" fill="#FFFFFF"/>
<path d="M 169 379 Q 162 379 162 390 Q 172 401 172 403 L 176 379 Z" fill="#FFFFFF"/>
<line x1="198" y1="368" x2="194" y2="400" stroke="#D1FAE5" stroke-width="3"/>
<line x1="228" y1="362" x2="225" y2="400" stroke="#D1FAE5" stroke-width="3"/>
<line x1="257" y1="366" x2="255" y2="400" stroke="#D1FAE5" stroke-width="3"/>
</g>
</svg>